<svg width="114" height="114" viewBox="0 0 114 114" fill="none" xmlns="http://www.w3.org/2000/svg">
<circle cx="57" cy="57" r="57" fill="black"/>
<path d="M39.1667 33.5866C39.1658 35.3326 38.4714 37.0068 37.2361 38.2408C36.0009 39.4748 34.3261 40.1675 32.58 40.1667C30.834 40.1658 29.1599 39.4714 27.9259 38.2361C26.6919 37.0009 25.9991 35.3261 26 33.58C26.0009 31.834 26.6953 30.1599 27.9305 28.9259C29.1658 27.6919 30.8406 26.9991 32.5866 27C34.3326 27.0009 36.0068 27.6953 37.2408 28.9305C38.4748 30.1658 39.1675 31.8406 39.1667 33.5866ZM39.3642 45.0416H26.1975V86.2533H39.3642V45.0416ZM60.1675 45.0416H47.0667V86.2533H60.0358V64.627C60.0358 52.5795 75.7371 51.4604 75.7371 64.627V86.2533H88.7392V60.1504C88.7392 39.8408 65.5 40.5979 60.0358 50.5716L60.1675 45.0416Z" fill="white"/>
</svg>
