<svg width="114" height="114" viewBox="0 0 114 114" fill="none" xmlns="http://www.w3.org/2000/svg">
<circle cx="57" cy="57" r="57" fill="black"/>
<path d="M44.9167 28H69.4167C78.75 28 86.3333 35.5833 86.3333 44.9167V69.4167C86.3333 73.9032 84.551 78.2061 81.3786 81.3786C78.2061 84.551 73.9032 86.3333 69.4167 86.3333H44.9167C35.5833 86.3333 28 78.75 28 69.4167V44.9167C28 40.4301 29.7823 36.1273 32.9548 32.9548C36.1273 29.7823 40.4301 28 44.9167 28ZM44.3333 33.8333C41.5486 33.8333 38.8778 34.9396 36.9087 36.9087C34.9396 38.8778 33.8333 41.5486 33.8333 44.3333V70C33.8333 75.8042 38.5292 80.5 44.3333 80.5H70C72.7848 80.5 75.4555 79.3938 77.4246 77.4246C79.3938 75.4555 80.5 72.7848 80.5 70V44.3333C80.5 38.5292 75.8042 33.8333 70 33.8333H44.3333ZM72.4792 38.2083C73.4461 38.2083 74.3734 38.5924 75.0572 39.2762C75.7409 39.9599 76.125 40.8872 76.125 41.8542C76.125 42.8211 75.7409 43.7484 75.0572 44.4322C74.3734 45.1159 73.4461 45.5 72.4792 45.5C71.5122 45.5 70.5849 45.1159 69.9012 44.4322C69.2174 43.7484 68.8333 42.8211 68.8333 41.8542C68.8333 40.8872 69.2174 39.9599 69.9012 39.2762C70.5849 38.5924 71.5122 38.2083 72.4792 38.2083ZM57.1667 42.5833C61.0344 42.5833 64.7437 44.1198 67.4786 46.8547C70.2135 49.5896 71.75 53.2989 71.75 57.1667C71.75 61.0344 70.2135 64.7437 67.4786 67.4786C64.7437 70.2135 61.0344 71.75 57.1667 71.75C53.2989 71.75 49.5896 70.2135 46.8547 67.4786C44.1198 64.7437 42.5833 61.0344 42.5833 57.1667C42.5833 53.2989 44.1198 49.5896 46.8547 46.8547C49.5896 44.1198 53.2989 42.5833 57.1667 42.5833ZM57.1667 48.4167C54.846 48.4167 52.6204 49.3385 50.9795 50.9795C49.3385 52.6204 48.4167 54.846 48.4167 57.1667C48.4167 59.4873 49.3385 61.7129 50.9795 63.3539C52.6204 64.9948 54.846 65.9167 57.1667 65.9167C59.4873 65.9167 61.7129 64.9948 63.3539 63.3539C64.9948 61.7129 65.9167 59.4873 65.9167 57.1667C65.9167 54.846 64.9948 52.6204 63.3539 50.9795C61.7129 49.3385 59.4873 48.4167 57.1667 48.4167Z" fill="white"/>
</svg>
