<svg width="114" height="114" viewBox="0 0 114 114" fill="none" xmlns="http://www.w3.org/2000/svg">
<circle cx="57" cy="57" r="57" fill="black"/>
<path d="M93.9831 34.1072C91.9229 37.1667 89.3953 39.7747 86.4004 41.9314C86.43 42.5098 86.4448 43.1635 86.4448 43.8926C86.4448 47.9435 85.8532 51.9993 84.6701 56.06C83.487 60.1208 81.6797 64.0077 79.2484 67.7206C76.8171 71.4336 73.9209 74.7229 70.5599 77.5887C67.1989 80.4545 63.1588 82.7395 58.4396 84.4437C53.7204 86.1479 48.6627 87.0001 43.2666 87.0001C34.8449 87.0001 27.0894 84.7302 20 80.1905C21.2583 80.3303 22.4651 80.4002 23.6204 80.4002C30.656 80.4002 36.9399 78.2366 42.4722 73.9096C39.1918 73.8495 36.2539 72.8413 33.6587 70.885C31.0634 68.9287 29.2773 66.429 28.3006 63.3857C29.266 63.5693 30.2189 63.6611 31.1592 63.6611C32.5127 63.6611 33.8445 63.4849 35.1546 63.1324C31.6538 62.4324 28.7496 60.6916 26.442 57.91C24.1344 55.1285 22.9807 51.918 22.9807 48.2786V48.0911C25.1295 49.2789 27.4215 49.9108 29.8568 49.9866C27.7829 48.6063 26.1387 46.8063 24.924 44.5867C23.7093 42.367 23.1019 39.965 23.1019 37.3805C23.1019 34.6548 23.7861 32.1167 25.1543 29.7661C28.9614 34.4303 33.5744 38.1582 38.9934 40.9496C44.4126 43.741 50.2262 45.2913 56.4344 45.6004C56.1697 44.4987 56.037 43.349 56.0365 42.1513C56.0365 37.9695 57.5188 34.3988 60.4834 31.4393C63.448 28.4798 67.0246 27 71.2133 27C75.5986 27 79.2924 28.5942 82.2947 31.7827C85.725 31.1043 88.9369 29.8773 91.9304 28.1017C90.7771 31.7253 88.5548 34.5207 85.2636 36.4878C88.2885 36.1289 91.195 35.3354 93.983 34.1072H93.9831Z" fill="white"/>
</svg>
